<?xml version="1.0" encoding="UTF-8" standalone="no"?>
<!DOCTYPE svg PUBLIC "-//W3C//DTD SVG 1.1//EN"
 "http://www.w3.org/Graphics/SVG/1.1/DTD/svg11.dtd">
<!-- Generated by graphviz version 5.0.0 (20220707.1540)
 -->
<!-- Title: action Pages: 1 -->
<svg width="494pt" height="301pt"
 viewBox="0.00 0.00 494.00 301.48" xmlns="http://www.w3.org/2000/svg" xmlns:xlink="http://www.w3.org/1999/xlink">
<g id="graph0" class="graph" transform="scale(1 1) rotate(0) translate(4 297.48)">
<title>action</title>
<polygon fill="white" stroke="transparent" points="-4,4 -4,-297.48 490,-297.48 490,4 -4,4"/>
<!-- node_1 -->
<g id="node1" class="node">
<title>node_1</title>
<ellipse fill="none" stroke="black" cx="279" cy="-266.61" rx="27" ry="26.74"/>
<text text-anchor="middle" x="279" y="-270.41" font-family="Times New Roman,serif" font-size="14.00">3 1</text>
<text text-anchor="middle" x="279" y="-255.41" font-family="Times New Roman,serif" font-size="14.00">(1)</text>
</g>
<!-- node_2 -->
<g id="node2" class="node">
<title>node_2</title>
<polygon fill="none" stroke="black" points="72,-165.24 72,-203.24 126,-203.24 126,-165.24 72,-165.24"/>
<text text-anchor="middle" x="99" y="-188.04" font-family="Times New Roman,serif" font-size="14.00">1 1</text>
<text text-anchor="middle" x="99" y="-173.04" font-family="Times New Roman,serif" font-size="14.00">(&#45;2)</text>
</g>
<!-- node_1&#45;&#45;node_2 -->
<g id="edge1" class="edge">
<title>node_1&#45;&#45;node_2</title>
<path fill="none" stroke="black" d="M254.72,-254.77C221.23,-239.82 161.05,-212.94 126.12,-197.35"/>
</g>
<!-- node_5 -->
<g id="node5" class="node">
<title>node_5</title>
<polygon fill="none" stroke="black" points="216,-165.24 216,-203.24 270,-203.24 270,-165.24 216,-165.24"/>
<text text-anchor="middle" x="243" y="-188.04" font-family="Times New Roman,serif" font-size="14.00">2 1</text>
<text text-anchor="middle" x="243" y="-173.04" font-family="Times New Roman,serif" font-size="14.00">(&#45;2)</text>
</g>
<!-- node_1&#45;&#45;node_5 -->
<g id="edge4" class="edge">
<title>node_1&#45;&#45;node_5</title>
<path fill="none" stroke="black" d="M268.2,-241.5C262.73,-229.29 256.2,-214.71 251.16,-203.46"/>
</g>
<!-- node_12 -->
<g id="node12" class="node">
<title>node_12</title>
<polygon fill="none" stroke="black" points="288,-165.24 288,-203.24 342,-203.24 342,-165.24 288,-165.24"/>
<text text-anchor="middle" x="315" y="-188.04" font-family="Times New Roman,serif" font-size="14.00">1</text>
<text text-anchor="middle" x="315" y="-173.04" font-family="Times New Roman,serif" font-size="14.00">(1)</text>
</g>
<!-- node_1&#45;&#45;node_12 -->
<g id="edge11" class="edge">
<title>node_1&#45;&#45;node_12</title>
<path fill="none" stroke="black" d="M289.8,-241.5C295.27,-229.29 301.8,-214.71 306.84,-203.46"/>
</g>
<!-- node_13 -->
<g id="node13" class="node">
<title>node_13</title>
<polygon fill="none" stroke="black" points="360,-165.24 360,-203.24 414,-203.24 414,-165.24 360,-165.24"/>
<text text-anchor="middle" x="387" y="-188.04" font-family="Times New Roman,serif" font-size="14.00">3</text>
<text text-anchor="middle" x="387" y="-173.04" font-family="Times New Roman,serif" font-size="14.00">(&#45;2)</text>
</g>
<!-- node_1&#45;&#45;node_13 -->
<g id="edge12" class="edge">
<title>node_1&#45;&#45;node_13</title>
<path fill="none" stroke="black" d="M300.34,-249.73C318.29,-236.37 343.95,-217.28 362.69,-203.33"/>
</g>
<!-- node_3 -->
<g id="node3" class="node">
<title>node_3</title>
<ellipse fill="none" stroke="black" cx="27" cy="-101.87" rx="27" ry="26.74"/>
<text text-anchor="middle" x="27" y="-105.67" font-family="Times New Roman,serif" font-size="14.00">1</text>
<text text-anchor="middle" x="27" y="-90.67" font-family="Times New Roman,serif" font-size="14.00">(&#45;2)</text>
</g>
<!-- node_2&#45;&#45;node_3 -->
<g id="edge2" class="edge">
<title>node_2&#45;&#45;node_3</title>
<path fill="none" stroke="black" d="M82.66,-165C71.29,-152.31 56.15,-135.41 44.53,-122.44"/>
</g>
<!-- node_4 -->
<g id="node4" class="node">
<title>node_4</title>
<ellipse fill="none" stroke="black" cx="99" cy="-101.87" rx="27" ry="26.74"/>
<text text-anchor="middle" x="99" y="-105.67" font-family="Times New Roman,serif" font-size="14.00">1</text>
<text text-anchor="middle" x="99" y="-90.67" font-family="Times New Roman,serif" font-size="14.00">(&#45;2)</text>
</g>
<!-- node_2&#45;&#45;node_4 -->
<g id="edge3" class="edge">
<title>node_2&#45;&#45;node_4</title>
<path fill="none" stroke="black" d="M99,-165C99,-154.35 99,-140.73 99,-128.96"/>
</g>
<!-- node_6 -->
<g id="node6" class="node">
<title>node_6</title>
<ellipse fill="none" stroke="black" cx="171" cy="-101.87" rx="27" ry="26.74"/>
<text text-anchor="middle" x="171" y="-105.67" font-family="Times New Roman,serif" font-size="14.00">1 1</text>
<text text-anchor="middle" x="171" y="-90.67" font-family="Times New Roman,serif" font-size="14.00">(3)</text>
</g>
<!-- node_5&#45;&#45;node_6 -->
<g id="edge5" class="edge">
<title>node_5&#45;&#45;node_6</title>
<path fill="none" stroke="black" d="M226.66,-165C215.29,-152.31 200.15,-135.41 188.53,-122.44"/>
</g>
<!-- node_9 -->
<g id="node9" class="node">
<title>node_9</title>
<ellipse fill="none" stroke="black" cx="243" cy="-101.87" rx="27" ry="26.74"/>
<text text-anchor="middle" x="243" y="-105.67" font-family="Times New Roman,serif" font-size="14.00">1</text>
<text text-anchor="middle" x="243" y="-90.67" font-family="Times New Roman,serif" font-size="14.00">(&#45;2)</text>
</g>
<!-- node_5&#45;&#45;node_9 -->
<g id="edge8" class="edge">
<title>node_5&#45;&#45;node_9</title>
<path fill="none" stroke="black" d="M243,-165C243,-154.35 243,-140.73 243,-128.96"/>
</g>
<!-- node_10 -->
<g id="node10" class="node">
<title>node_10</title>
<ellipse fill="none" stroke="black" cx="315" cy="-101.87" rx="27" ry="26.74"/>
<text text-anchor="middle" x="315" y="-105.67" font-family="Times New Roman,serif" font-size="14.00">2</text>
<text text-anchor="middle" x="315" y="-90.67" font-family="Times New Roman,serif" font-size="14.00">(3)</text>
</g>
<!-- node_5&#45;&#45;node_10 -->
<g id="edge9" class="edge">
<title>node_5&#45;&#45;node_10</title>
<path fill="none" stroke="black" d="M259.34,-165C270.71,-152.31 285.85,-135.41 297.47,-122.44"/>
</g>
<!-- node_7 -->
<g id="node7" class="node">
<title>node_7</title>
<polygon fill="none" stroke="black" points="108,-0.5 108,-38.5 162,-38.5 162,-0.5 108,-0.5"/>
<text text-anchor="middle" x="135" y="-23.3" font-family="Times New Roman,serif" font-size="14.00">1</text>
<text text-anchor="middle" x="135" y="-8.3" font-family="Times New Roman,serif" font-size="14.00">(3)</text>
</g>
<!-- node_6&#45;&#45;node_7 -->
<g id="edge6" class="edge">
<title>node_6&#45;&#45;node_7</title>
<path fill="none" stroke="black" d="M160.2,-76.76C154.73,-64.55 148.2,-49.97 143.16,-38.72"/>
</g>
<!-- node_8 -->
<g id="node8" class="node">
<title>node_8</title>
<polygon fill="none" stroke="black" points="180,-0.5 180,-38.5 234,-38.5 234,-0.5 180,-0.5"/>
<text text-anchor="middle" x="207" y="-23.3" font-family="Times New Roman,serif" font-size="14.00">1</text>
<text text-anchor="middle" x="207" y="-8.3" font-family="Times New Roman,serif" font-size="14.00">(3)</text>
</g>
<!-- node_6&#45;&#45;node_8 -->
<g id="edge7" class="edge">
<title>node_6&#45;&#45;node_8</title>
<path fill="none" stroke="black" d="M181.8,-76.76C187.27,-64.55 193.8,-49.97 198.84,-38.72"/>
</g>
<!-- node_11 -->
<g id="node11" class="node">
<title>node_11</title>
<polygon fill="none" stroke="black" points="288,-0.5 288,-38.5 342,-38.5 342,-0.5 288,-0.5"/>
<text text-anchor="middle" x="315" y="-23.3" font-family="Times New Roman,serif" font-size="14.00">1</text>
<text text-anchor="middle" x="315" y="-8.3" font-family="Times New Roman,serif" font-size="14.00">(3)</text>
</g>
<!-- node_10&#45;&#45;node_11 -->
<g id="edge10" class="edge">
<title>node_10&#45;&#45;node_11</title>
<path fill="none" stroke="black" d="M315,-75C315,-63.25 315,-49.63 315,-38.94"/>
</g>
<!-- node_14 -->
<g id="node14" class="node">
<title>node_14</title>
<ellipse fill="none" stroke="black" cx="387" cy="-101.87" rx="27" ry="26.74"/>
<text text-anchor="middle" x="387" y="-105.67" font-family="Times New Roman,serif" font-size="14.00">1</text>
<text text-anchor="middle" x="387" y="-90.67" font-family="Times New Roman,serif" font-size="14.00">(&#45;2)</text>
</g>
<!-- node_13&#45;&#45;node_14 -->
<g id="edge13" class="edge">
<title>node_13&#45;&#45;node_14</title>
<path fill="none" stroke="black" d="M387,-165C387,-154.35 387,-140.73 387,-128.96"/>
</g>
<!-- node_15 -->
<g id="node15" class="node">
<title>node_15</title>
<ellipse fill="none" stroke="black" cx="459" cy="-101.87" rx="27" ry="26.74"/>
<text text-anchor="middle" x="459" y="-105.67" font-family="Times New Roman,serif" font-size="14.00">2</text>
<text text-anchor="middle" x="459" y="-90.67" font-family="Times New Roman,serif" font-size="14.00">(3)</text>
</g>
<!-- node_13&#45;&#45;node_15 -->
<g id="edge14" class="edge">
<title>node_13&#45;&#45;node_15</title>
<path fill="none" stroke="black" d="M403.34,-165C414.71,-152.31 429.85,-135.41 441.47,-122.44"/>
</g>
<!-- node_16 -->
<g id="node16" class="node">
<title>node_16</title>
<polygon fill="none" stroke="black" points="432,-0.5 432,-38.5 486,-38.5 486,-0.5 432,-0.5"/>
<text text-anchor="middle" x="459" y="-23.3" font-family="Times New Roman,serif" font-size="14.00">1</text>
<text text-anchor="middle" x="459" y="-8.3" font-family="Times New Roman,serif" font-size="14.00">(3)</text>
</g>
<!-- node_15&#45;&#45;node_16 -->
<g id="edge15" class="edge">
<title>node_15&#45;&#45;node_16</title>
<path fill="none" stroke="black" d="M459,-75C459,-63.25 459,-49.63 459,-38.94"/>
</g>
</g>
</svg>
