<?xml version="1.0" encoding="UTF-8" standalone="no"?>
<!DOCTYPE svg PUBLIC "-//W3C//DTD SVG 1.1//EN"
 "http://www.w3.org/Graphics/SVG/1.1/DTD/svg11.dtd">
<!-- Generated by graphviz version 5.0.0 (20220707.1540)
 -->
<!-- Title: action Pages: 1 -->
<svg width="566pt" height="260pt"
 viewBox="0.00 0.00 566.00 260.00" xmlns="http://www.w3.org/2000/svg" xmlns:xlink="http://www.w3.org/1999/xlink">
<g id="graph0" class="graph" transform="scale(1 1) rotate(0) translate(4 256)">
<title>action</title>
<polygon fill="white" stroke="transparent" points="-4,4 -4,-256 562,-256 562,4 -4,4"/>
<!-- epoll -->
<g id="node1" class="node">
<title>epoll</title>
<text text-anchor="middle" x="167" y="-230.3" font-family="Times New Roman,serif" font-size="14.00">17 是第 3 大元素</text>
</g>
<!-- node_11 -->
<g id="node2" class="node">
<title>node_11</title>
<ellipse fill="none" stroke="black" cx="279" cy="-234" rx="27" ry="18"/>
<text text-anchor="middle" x="279" y="-230.3" font-family="Times New Roman,serif" font-size="14.00">17</text>
</g>
<!-- node_21 -->
<g id="node3" class="node">
<title>node_21</title>
<ellipse fill="none" stroke="black" cx="207" cy="-162" rx="27" ry="18"/>
<text text-anchor="middle" x="207" y="-158.3" font-family="Times New Roman,serif" font-size="14.00">17</text>
</g>
<!-- node_11&#45;&#45;node_21 -->
<g id="edge1" class="edge">
<title>node_11&#45;&#45;node_21</title>
<path fill="none" stroke="black" d="M264.43,-218.83C252.02,-206.77 234.27,-189.51 221.8,-177.38"/>
</g>
<!-- node_22 -->
<g id="node4" class="node">
<title>node_22</title>
<ellipse fill="none" stroke="black" cx="351" cy="-162" rx="27" ry="18"/>
<text text-anchor="middle" x="351" y="-158.3" font-family="Times New Roman,serif" font-size="14.00">11</text>
</g>
<!-- node_11&#45;&#45;node_22 -->
<g id="edge2" class="edge">
<title>node_11&#45;&#45;node_22</title>
<path fill="none" stroke="black" d="M293.57,-218.83C305.98,-206.77 323.73,-189.51 336.2,-177.38"/>
</g>
<!-- node_31 -->
<g id="node5" class="node">
<title>node_31</title>
<ellipse fill="none" stroke="black" cx="99" cy="-90" rx="27" ry="18"/>
<text text-anchor="middle" x="99" y="-86.3" font-family="Times New Roman,serif" font-size="14.00">8</text>
</g>
<!-- node_21&#45;&#45;node_31 -->
<g id="edge3" class="edge">
<title>node_21&#45;&#45;node_31</title>
<path fill="none" stroke="black" d="M188.19,-148.81C168.37,-135.96 137.34,-115.85 117.6,-103.05"/>
</g>
<!-- node_32 -->
<g id="node6" class="node">
<title>node_32</title>
<ellipse fill="none" stroke="black" cx="207" cy="-90" rx="27" ry="18"/>
<text text-anchor="middle" x="207" y="-86.3" font-family="Times New Roman,serif" font-size="14.00">17</text>
</g>
<!-- node_21&#45;&#45;node_32 -->
<g id="edge4" class="edge">
<title>node_21&#45;&#45;node_32</title>
<path fill="none" stroke="black" d="M207,-143.7C207,-132.85 207,-118.92 207,-108.1"/>
</g>
<!-- node_33 -->
<g id="node7" class="node">
<title>node_33</title>
<ellipse fill="none" stroke="black" cx="351" cy="-90" rx="27" ry="18"/>
<text text-anchor="middle" x="351" y="-86.3" font-family="Times New Roman,serif" font-size="14.00">9</text>
</g>
<!-- node_22&#45;&#45;node_33 -->
<g id="edge5" class="edge">
<title>node_22&#45;&#45;node_33</title>
<path fill="none" stroke="black" d="M351,-143.7C351,-132.85 351,-118.92 351,-108.1"/>
</g>
<!-- node_34 -->
<g id="node8" class="node">
<title>node_34</title>
<ellipse fill="none" stroke="black" cx="459" cy="-90" rx="27" ry="18"/>
<text text-anchor="middle" x="459" y="-86.3" font-family="Times New Roman,serif" font-size="14.00">11</text>
</g>
<!-- node_22&#45;&#45;node_34 -->
<g id="edge6" class="edge">
<title>node_22&#45;&#45;node_34</title>
<path fill="none" stroke="black" d="M369.81,-148.81C389.63,-135.96 420.66,-115.85 440.4,-103.05"/>
</g>
<!-- node_41 -->
<g id="node9" class="node">
<title>node_41</title>
<ellipse fill="none" stroke="black" cx="27" cy="-18" rx="27" ry="18"/>
<text text-anchor="middle" x="27" y="-14.3" font-family="Times New Roman,serif" font-size="14.00">&#45;∞</text>
</g>
<!-- node_31&#45;&#45;node_41 -->
<g id="edge7" class="edge">
<title>node_31&#45;&#45;node_41</title>
<path fill="none" stroke="black" d="M84.43,-74.83C72.02,-62.77 54.27,-45.51 41.8,-33.38"/>
</g>
<!-- node_42 -->
<g id="node10" class="node">
<title>node_42</title>
<ellipse fill="none" stroke="black" cx="99" cy="-18" rx="27" ry="18"/>
<text text-anchor="middle" x="99" y="-14.3" font-family="Times New Roman,serif" font-size="14.00">8</text>
</g>
<!-- node_31&#45;&#45;node_42 -->
<g id="edge8" class="edge">
<title>node_31&#45;&#45;node_42</title>
<path fill="none" stroke="black" d="M99,-71.7C99,-60.85 99,-46.92 99,-36.1"/>
</g>
<!-- node_43 -->
<g id="node11" class="node">
<title>node_43</title>
<ellipse fill="none" stroke="black" cx="171" cy="-18" rx="27" ry="18"/>
<text text-anchor="middle" x="171" y="-14.3" font-family="Times New Roman,serif" font-size="14.00">14</text>
</g>
<!-- node_32&#45;&#45;node_43 -->
<g id="edge9" class="edge">
<title>node_32&#45;&#45;node_43</title>
<path fill="none" stroke="black" d="M198.65,-72.76C192.83,-61.46 185.11,-46.44 179.3,-35.15"/>
</g>
<!-- node_44 -->
<g id="node12" class="node">
<title>node_44</title>
<ellipse fill="none" stroke="black" cx="243" cy="-18" rx="27" ry="18"/>
<text text-anchor="middle" x="243" y="-14.3" font-family="Times New Roman,serif" font-size="14.00">17</text>
</g>
<!-- node_32&#45;&#45;node_44 -->
<g id="edge10" class="edge">
<title>node_32&#45;&#45;node_44</title>
<path fill="none" stroke="black" d="M215.35,-72.76C221.17,-61.46 228.89,-46.44 234.7,-35.15"/>
</g>
<!-- node_45 -->
<g id="node13" class="node">
<title>node_45</title>
<ellipse fill="none" stroke="black" cx="315" cy="-18" rx="27" ry="18"/>
<text text-anchor="middle" x="315" y="-14.3" font-family="Times New Roman,serif" font-size="14.00">3</text>
</g>
<!-- node_33&#45;&#45;node_45 -->
<g id="edge11" class="edge">
<title>node_33&#45;&#45;node_45</title>
<path fill="none" stroke="black" d="M342.65,-72.76C336.83,-61.46 329.11,-46.44 323.3,-35.15"/>
</g>
<!-- node_46 -->
<g id="node14" class="node">
<title>node_46</title>
<ellipse fill="none" stroke="black" cx="387" cy="-18" rx="27" ry="18"/>
<text text-anchor="middle" x="387" y="-14.3" font-family="Times New Roman,serif" font-size="14.00">9</text>
</g>
<!-- node_33&#45;&#45;node_46 -->
<g id="edge12" class="edge">
<title>node_33&#45;&#45;node_46</title>
<path fill="none" stroke="black" d="M359.35,-72.76C365.17,-61.46 372.89,-46.44 378.7,-35.15"/>
</g>
<!-- node_47 -->
<g id="node15" class="node">
<title>node_47</title>
<ellipse fill="none" stroke="black" cx="459" cy="-18" rx="27" ry="18"/>
<text text-anchor="middle" x="459" y="-14.3" font-family="Times New Roman,serif" font-size="14.00">&#45;∞</text>
</g>
<!-- node_34&#45;&#45;node_47 -->
<g id="edge13" class="edge">
<title>node_34&#45;&#45;node_47</title>
<path fill="none" stroke="black" d="M459,-71.7C459,-60.85 459,-46.92 459,-36.1"/>
</g>
<!-- node_48 -->
<g id="node16" class="node">
<title>node_48</title>
<ellipse fill="none" stroke="black" cx="531" cy="-18" rx="27" ry="18"/>
<text text-anchor="middle" x="531" y="-14.3" font-family="Times New Roman,serif" font-size="14.00">11</text>
</g>
<!-- node_34&#45;&#45;node_48 -->
<g id="edge14" class="edge">
<title>node_34&#45;&#45;node_48</title>
<path fill="none" stroke="black" d="M473.57,-74.83C485.98,-62.77 503.73,-45.51 516.2,-33.38"/>
</g>
</g>
</svg>
